:version 1.10
:name ASF
:units
  mass 1
  length 1
  angle deg
:documentation
  ASF file generated by Kaydara
:root
  axis xyz
  order  tx ty tz rx ry rz
  position 0 0 0
  orientation 0 0 0
:bonedata
  begin
    id 1
    name SpineDummy
    direction 0.999998 -0.00179978 1.38929e-006
    length 3.60008
    axis 0 0 0 xyz
  end
  begin
    id 2
    name Spine
    direction 0.964365 0.262802 0.0305839
    length 8.13928
    axis 1.33928 -1.75354 15.2838 xyz
    dof rx ry rz
  end
  begin
    id 3
    name Spine1
    direction 0.811168 0.572065 0.12144
    length 7.14954
    axis 2.2224 -6.9761 35.2157 xyz
    dof rx ry rz
  end
  begin
    id 4
    name Neck
    direction 0 0 0
    length 0
    axis 2.2224 -6.9761 35.2157 xyz
    dof rx ry rz
  end
  begin
    id 5
    name HeadDummy
    direction 0.810939 0.572387 0.121455
    length 3.55534
    axis 2.2224 -6.9761 35.2157 xyz
  end
  begin
    id 6
    name Head
    direction 0.998226 -0.000232542 0.0595419
    length 7.35666
    axis -3.03688 -3.41352 -0.0133467 xyz
    dof rx ry rz
  end
  begin
    id 7
    name R_ClavicleDummy
    direction 0.531669 -0.194489 -0.824319
    length 2.49392
    axis 2.2224 -6.9761 35.2157 xyz
  end
  begin
    id 8
    name R_Clavicle
    direction -0.155119 0.0480802 -0.986725
    length 4.485
    axis -54.2764 80.6538 162.779 xyz
    dof rx ry rz
  end
  begin
    id 9
    name R_UpperArm
    direction -0.955567 0.200068 -0.216484
    length 10.1122
    axis -72.9943 12.5026 168.175 xyz
    dof rx ry rz
  end
  begin
    id 10
    name R_Forearm
    direction -0.61433 0.385743 0.688332
    length 9.39148
    axis -117.015 -43.4982 147.875 xyz
    dof rx ry rz
  end
  begin
    id 11
    name R_Hand
    direction -0.699429 0.0170333 0.714499
    length 3.66324
    axis -45.0303 -36.7097 175.478 xyz
    dof rx ry rz
  end
  begin
    id 12
    name L_ClavicleDummy
    direction 0.40287 -0.36502 0.839319
    length 2.49392
    axis 2.2224 -6.9761 35.2157 xyz
  end
  begin
    id 13
    name L_Clavicle
    direction -0.231271 -0.0726419 0.970174
    length 4.485
    axis 18.4357 -75.9711 -162.563 xyz
    dof rx ry rz
  end
  begin
    id 14
    name L_UpperArm
    direction -0.917494 0.144359 0.370629
    length 10.1122
    axis 56.0417 -21.7544 171.058 xyz
    dof rx ry rz
  end
  begin
    id 15
    name L_Forearm
    direction -0.496786 0.615074 -0.612281
    length 9.39148
    axis 89.8094 37.7546 128.927 xyz
    dof rx ry rz
  end
  begin
    id 16
    name L_Hand
    direction -0.409932 0.64962 -0.640274
    length 3.66324
    axis -0.424369 32.133 128.52 xyz
    dof rx ry rz
  end
  begin
    id 17
    name L_ThighDummy
    direction -1.84081e-006 1.87549e-006 1
    length 3.13049
    axis 0 0 0 xyz
  end
  begin
    id 18
    name L_Thigh
    direction -0.947739 0.307978 0.083308
    length 17.9961
    axis 173.219 -4.77873 161.998 xyz
    dof rx ry rz
  end
  begin
    id 19
    name L_Calf
    direction -0.728814 -0.684427 0.0197583
    length 13.3367
    axis 167.331 -1.13214 -136.799 xyz
    dof rx ry rz
  end
  begin
    id 20
    name L_Foot
    direction -0.9028 0.418719 0.0981191
    length 5.8674
    axis 163.436 11.5135 -155.37 xyz
    dof rx ry rz
  end
  begin
    id 21
    name L_Toe0
    direction -0.35341 0.886259 0.299411
    length 4.75286
    axis 169.316 -17.4222 111.74 xyz
    dof rx ry rz
  end
  begin
    id 22
    name R_ThighDummy
    direction 9.32778e-007 -8.82053e-007 -1
    length 3.13049
    axis 0 0 0 xyz
  end
  begin
    id 23
    name R_Thigh
    direction -0.925064 0.37528 -0.0585023
    length 17.9961
    axis -178.698 3.35385 157.919 xyz
    dof rx ry rz
  end
  begin
    id 24
    name R_Calf
    direction -0.68969 -0.718776 -0.0876886
    length 13.3367
    axis -160.504 5.03065 -133.817 xyz
    dof rx ry rz
  end
  begin
    id 25
    name R_Foot
    direction -0.857405 0.418858 -0.299022
    length 5.8674
    axis -161.328 4.38911 -154.413 xyz
    dof rx ry rz
  end
  begin
    id 26
    name R_Toe0
    direction -0.100745 0.952789 -0.286433
    length 4.75286
    axis 171.683 16.6445 96.0359 xyz
    dof rx ry rz
  end
:hierarchy
  begin
    root SpineDummy L_ThighDummy R_ThighDummy
    SpineDummy Spine
    Spine Spine1
    Spine1 Neck
    Neck HeadDummy R_ClavicleDummy L_ClavicleDummy
    HeadDummy Head
    R_ClavicleDummy R_Clavicle
    R_Clavicle R_UpperArm
    R_UpperArm R_Forearm
    R_Forearm R_Hand
    L_ClavicleDummy L_Clavicle
    L_Clavicle L_UpperArm
    L_UpperArm L_Forearm
    L_Forearm L_Hand
    L_ThighDummy L_Thigh
    L_Thigh L_Calf
    L_Calf L_Foot
    L_Foot L_Toe0
    R_ThighDummy R_Thigh
    R_Thigh R_Calf
    R_Calf R_Foot
    R_Foot R_Toe0
  end

:SAMPLES-PER-SECOND 30
:FULLY-SPECIFIED
:DEGREES
114
root  0.0915777 30.7969 -1.41525 -42.9074 -2.79868 83.8693
Spine  0.86263 0.730123 -6.26132
Spine1  0.763801 2.80463 0.536664
Neck  3.97569e-016 0 -2.38542e-015
Head  -42.4667 -0.814632 21.6342
R_Clavicle  -0.311164 -9.0811 -3.85887
R_UpperArm  28.2799 -9.33561 14.8513
R_Forearm  28.4572 18.7471 -16.4037
R_Hand  -0.881764 2.14274 -16.4025
L_Clavicle  0.276373 0.867947 -2.26798
L_UpperArm  -5.27633 -1.98436 -16.5254
L_Forearm  3.15922 -21.4778 -26.984
L_Hand  -0.728934 5.89195 -7.07745
L_Thigh  -19.5201 -16.3691 21.6301
L_Calf  -8.57403 1.3667 -10.3883
L_Foot  3.82196 8.32425 6.38768
L_Toe0  0.505156 0.034446 -6.1361
R_Thigh  6.53972 14.2124 -12.7024
R_Calf  5.54581 5.74589 18.3113
R_Foot  -4.42785 -5.56823 16.1586
R_Toe0  -1.78853 -0.272558 -17.3235
115
root  -0.868871 30.1638 -1.98894 -42.9004 -3.30302 83.9423
Spine  0.247757 0.310404 -12.6255
Spine1  0.82661 3.44334 5.0061
Neck  3.97569e-016 0 -2.38542e-015
Head  -40.9972 -0.560955 23.8886
R_Clavicle  0.312768 -20.0181 -2.73058
R_UpperArm  22.4591 -16.3077 33.1165
R_Forearm  49.5826 23.8039 -21.5272
R_Hand  -0.92937 -2.09602 -12.7122
L_Clavicle  -0.268761 10.4376 -0.181566
L_UpperArm  -0.157863 0.600309 -1.68894
L_Forearm  4.52023 -24.4496 -31.6197
L_Hand  -0.628803 5.31153 -6.40564
L_Thigh  -20.1432 -16.6442 17.6363
L_Calf  -8.39076 2.31872 -17.5176
L_Foot  4.2864 9.57395 6.70111
L_Toe0  0.505156 0.034446 -6.1361
R_Thigh  4.94813 15.0471 -13.5765
R_Calf  7.91711 4.50823 14.3131
R_Foot  -4.4134 -3.97565 20.2497
R_Toe0  -1.78853 -0.272463 -17.3235
116
root  -1.67515 29.4523 -2.30368 -45.0529 -3.66868 84.9126
Spine  0.142965 2.82058 -19.28
Spine1  1.17386 1.10603 10.5287
Neck  3.97569e-016 0 -2.38542e-015
Head  -38.8965 -1.38836 23.0586
R_Clavicle  0.568045 -26.2881 -1.67663
R_UpperArm  18.5068 -20.6062 47.6447
R_Forearm  57.7283 27.4803 -25.6312
R_Hand  -0.790695 -2.29683 -8.83226
L_Clavicle  -0.449848 16.9893 2.39679
L_UpperArm  2.10557 0.721264 11.0955
L_Forearm  10.467 -26.2928 -34.7266
L_Hand  -0.721655 3.91729 -8.4548
L_Thigh  -22.062 -14.8959 15.2391
L_Calf  -8.52815 2.77287 -21.0261
L_Foot  4.43725 9.4984 7.29436
L_Toe0  0.407507 0.0414349 -6.22331
R_Thigh  5.65906 15.2317 -13.0118
R_Calf  7.11344 3.01557 9.60181
R_Foot  -4.06638 -1.86411 24.6011
R_Toe0  -1.78853 -0.272397 -17.3235
117
root  -2.24647 28.8517 -2.40526 -47.4159 -4.17013 85.6609
Spine  0.304374 5.35923 -22.1898
Spine1  1.4341 -1.23356 12.9673
Neck  3.97569e-016 0 -2.38542e-015
Head  -36.3662 -2.72941 22.697
R_Clavicle  0.586764 -27.1049 -1.3482
R_UpperArm  18.8207 -22.7549 51.7617
R_Forearm  51.1559 29.7069 -28.3248
R_Hand  -0.519956 0.415955 -9.38794
L_Clavicle  -0.432187 19.1997 3.81544
L_UpperArm  0.948047 1.77445 18.8071
L_Forearm  18.3336 -26.0039 -34.2193
L_Hand  -0.706358 2.1783 -10.3443
L_Thigh  -24.2587 -12.0874 14.2574
L_Calf  -10.7137 2.74946 -20.8472
L_Foot  4.6121 8.87388 8.54939
L_Toe0  1.35729 -0.0269335 -5.37459
R_Thigh  7.16846 14.762 -12.5345
R_Calf  5.38686 1.79128 5.77767
R_Foot  -4.04513 -0.830346 28.1969
R_Toe0  -1.78853 -0.272382 -17.3235
118
root  -2.59525 28.537 -2.38163 -48.3574 -4.60664 85.4311
Spine  1.07646 5.65243 -20.3475
Spine1  1.93055 -1.86384 10.4442
Neck  3.97569e-016 0 -2.38542e-015
Head  -31.8453 -4.56618 25.4703
R_Clavicle  0.497113 -24.508 -1.25399
R_UpperArm  20.3028 -22.4308 45.097
R_Forearm  38.0022 29.8882 -28.5534
R_Hand  -0.145025 5.69473 -10.6065
L_Clavicle  -0.434702 18.2757 4.04885
L_UpperArm  -0.41295 2.49372 19.8572
L_Forearm  26.2568 -23.2058 -29.6107
L_Hand  -0.481061 1.29593 -7.80073
L_Thigh  -24.9573 -9.84365 14.4375
L_Calf  -13.7094 2.32862 -17.602
L_Foot  5.08017 8.92862 10.0878
L_Toe0  5.0039 -0.283979 -2.12005
R_Thigh  8.28369 13.5841 -12.7133
R_Calf  3.84736 1.06249 3.51178
R_Foot  -4.06627 -0.350841 30.2271
R_Toe0  -1.78853 -0.27244 -17.3235
119
root  -2.84034 28.5937 -2.33242 -47.581 -4.19053 84.1918
Spine  2.32857 4.49667 -16.4001
Spine1  2.73019 -2.75085 5.11478
Neck  3.97569e-016 0 -2.38542e-015
Head  -23.8365 -6.59382 31.0031
R_Clavicle  0.378989 -20.8547 -1.29323
R_UpperArm  19.5136 -20.1886 32.9254
R_Forearm  27.2521 26.7836 -24.8274
R_Hand  0.450473 10.2227 -9.47456
L_Clavicle  -0.45194 16.1139 3.49277
L_UpperArm  1.1093 -0.0136781 15.4528
L_Forearm  32.3667 -17.6482 -21.4949
L_Hand  -0.272767 2.47947 -3.73977
L_Thigh  -23.6536 -9.1297 15.2185
L_Calf  -14.0883 1.54882 -11.7298
L_Foot  5.31104 9.27221 10.4819
L_Toe0  3.6066 -0.173415 -3.3781
R_Thigh  8.7445 11.6787 -13.4095
R_Calf  3.31621 1.02294 3.35874
R_Foot  -3.93518 -0.0575196 30.5414
R_Toe0  -1.7942 -0.272696 -17.3267
120
root  -3.13453 28.8532 -2.33807 -45.4177 -2.43913 82.1154
Spine  3.61282 3.74279 -12.4938
Spine1  3.6938 -6.85379 -0.061138
Neck  3.97569e-016 0 -2.38542e-015
Head  -13.4158 -7.81418 37.397
R_Clavicle  0.257768 -17.726 -1.80839
R_UpperArm  17.2797 -17.4569 21.9086
R_Forearm  23.0157 19.7762 -17.4136
R_Hand  0.415528 11.1222 -10.2391
L_Clavicle  -0.430379 13.0254 2.32056
L_UpperArm  7.03935 -4.80698 8.13042
L_Forearm  34.0012 -9.89193 -11.5583
L_Hand  -0.265693 3.99857 -3.04501
L_Thigh  -21.5019 -10.1141 15.9007
L_Calf  -11.4478 0.548264 -4.32371
L_Foot  5.00393 9.30855 9.41018
L_Toe0  0.229883 0.0529969 -6.38094
R_Thigh  8.32417 9.24101 -14.3008
R_Calf  5.32061 1.36576 4.36866
R_Foot  -3.03415 1.28591 29.8738
R_Toe0  -1.76226 -0.272096 -17.3086
121
root  -3.5131 28.9753 -2.41151 -42.1926 0.034182 79.5513
Spine  4.70028 3.77569 -8.67091
Spine1  4.82776 -13.6616 -3.58111
Neck  3.97569e-016 0 -2.38542e-015
Head  -3.92418 -7.81358 42.4734
R_Clavicle  0.111351 -15.3049 -2.74024
R_UpperArm  16.2241 -15.2221 14.6518
R_Forearm  26.5419 11.0131 -9.33599
R_Hand  -0.266972 10.4813 -14.3358
L_Clavicle  -0.316613 9.15933 0.979587
L_UpperArm  16.5143 -9.32823 -0.343243
L_Forearm  31.1714 -1.98517 -2.22929
L_Hand  -0.43627 4.43694 -4.80913
L_Thigh  -19.7465 -12.1577 16.6479
L_Calf  -9.7644 -0.364192 2.41577
L_Foot  5.0781 10.4641 8.42577
L_Toe0  0.505156 0.0344154 -6.1361
R_Thigh  7.16965 6.97978 -14.9779
R_Calf  10.7506 1.30367 4.12823
R_Foot  -1.29375 4.06419 29.1913
R_Toe0  -1.38455 -0.266652 -17.094
122
root  -3.90979 28.7747 -2.5342 -38.2976 2.26243 77.1744
Spine  5.43626 3.77242 -4.8806
Spine1  5.80539 -19.7756 -5.17603
Neck  3.97569e-016 0 -2.38542e-015
Head  2.1521 -7.00808 44.722
R_Clavicle  -0.0416062 -13.2965 -3.52465
R_UpperArm  17.1491 -13.4375 10.5201
R_Forearm  32.8395 4.03443 -3.38755
R_Hand  -0.674737 9.3135 -16.7867
L_Clavicle  -0.195224 6.32879 0.252255
L_UpperArm  27.1701 -13.2824 -9.19506
L_Forearm  26.6077 3.80174 4.47454
L_Hand  -0.585907 4.78364 -6.28854
L_Thigh  -19.1629 -13.8463 18.1107
L_Calf  -12.1427 -0.970643 6.93096
L_Foot  5.59684 13.0177 7.56878
L_Toe0  0.505156 0.033794 -6.1361
R_Thigh  5.86573 5.88892 -14.9715
R_Calf  18.4161 0.291645 0.963572
R_Foot  0.0461782 6.23661 28.5976
R_Toe0  -0.100123 -0.27601 -16.3622
123
root  -4.31824 28.2457 -2.72433 -34.2602 4.1282 75.5142
Spine  5.71809 3.42772 -2.14389
Spine1  6.17673 -23.8954 -4.9536
Neck  3.97569e-016 0 -2.38542e-015
Head  5.1648 -5.21268 44.617
R_Clavicle  -0.0950474 -12.6849 -3.78647
R_UpperArm  19.1231 -11.8234 8.81759
R_Forearm  35.3659 0.627823 -0.548398
R_Hand  -0.624995 7.84352 -15.9616
L_Clavicle  -0.1724 5.82699 0.11925
L_UpperArm  36.8866 -17.0277 -16.9359
L_Forearm  23.1398 6.57371 7.7282
L_Hand  -0.679819 5.34747 -6.92409
L_Thigh  -21.03 -13.9704 20.2457
L_Calf  -17.2511 -1.33941 9.69044
L_Foot  4.95863 15.1415 3.7874
L_Toe0  0.505156 0.0327008 -6.13611
R_Thigh  4.31078 6.132 -14.2275
R_Calf  25.0993 -1.54055 -4.71394
R_Foot  0.568588 7.03528 27.7338
R_Toe0  2.38623 -0.386997 -14.9414
124
root  -4.84255 27.3856 -3.00368 -30.4057 5.84488 74.5949
Spine  5.71415 3.20811 -1.35944
Spine1  5.84757 -27.2338 -2.83413
Neck  3.97569e-016 0 -2.38542e-015
Head  6.3494 -1.67312 43.7289
R_Clavicle  -0.0065597 -14.1632 -3.65716
R_UpperArm  20.7197 -10.5652 8.62648
R_Forearm  34.6892 -0.726197 0.576328
R_Hand  -0.638741 6.77626 -15.6657
L_Clavicle  -0.167661 6.57875 -0.179525
L_UpperArm  44.3523 -20.0982 -22.1948
L_Forearm  21.9152 7.07252 8.32211
L_Hand  -0.711798 5.454 -7.18625
L_Thigh  -25.8833 -12.5326 22.2358
L_Calf  -20.2209 -1.52316 11.0645
L_Foot  2.83089 16.7132 -3.5446
L_Toe0  0.503135 0.0315872 -6.13791
R_Thigh  2.42299 6.88799 -13.9077
R_Calf  28.036 -3.53204 -10.9431
R_Foot  1.64843 8.88705 28.2837
R_Toe0  4.79088 -0.604572 -13.6245
125
root  -5.55094 26.2595 -3.32739 -26.5975 7.03835 73.8572
Spine  5.65828 3.55653 -2.15339
Spine1  4.75352 -30.067 1.48387
Neck  3.97569e-016 0 -2.38542e-015
Head  5.09606 3.09546 42.2977
R_Clavicle  0.0966165 -15.9557 -3.48231
R_UpperArm  22.3716 -10.0025 8.86748
R_Forearm  34.6519 -1.47638 1.19925
R_Hand  -0.84413 6.57786 -17.3545
L_Clavicle  -0.145366 7.28563 -0.738592
L_UpperArm  49.5426 -21.9802 -25.7698
L_Forearm  22.5921 6.60725 7.77401
L_Hand  -0.685314 5.2489 -7.05128
L_Thigh  -31.1252 -11.1324 23.4436
L_Calf  -18.2816 -1.33405 9.64523
L_Foot  1.57418 20.2557 -8.98999
L_Toe0  0.52619 0.0308152 -6.13318
R_Thigh  1.96737 7.18177 -15.395
R_Calf  28.0946 -5.09767 -15.9655
R_Foot  4.37348 13.3071 32.1509
R_Toe0  5.18987 -0.684273 -13.015
